<svg xmlns="http://www.w3.org/2000/svg" xml:space="preserve" width="40" height="40" baseProfile="full" viewBox="0 0 76 76"><path d="M22.2448 39.5833H19v-3.1666h3.2448c.7427-7.4804 6.6915-13.4292 14.1719-14.1719V19h3.1666v3.2448c7.4804.7427 13.4292 6.6915 14.1719 14.1719H57v3.1666h-3.2448c-.7427 7.4804-6.6915 13.4292-14.1719 14.1719V57h-3.1666v-3.2448c-7.4804-.7427-13.4292-6.6915-14.1719-14.1719Zm3.1865-3.1666H28.5v3.1666h-3.0687c.7145 5.7297 5.2557 10.2709 10.9854 10.9854V47.5h3.1666v3.0687c5.7297-.7145 10.2709-5.2557 10.9853-10.9854H47.5v-3.1666h3.0686c-.7144-5.7297-5.2556-10.2709-10.9853-10.9853V28.5h-3.1666v-3.0686c-5.7297.7144-10.2709 5.2556-10.9854 10.9853Z"/></svg>